P3
10 10
255
0 0 0 0 0 0 0 0 0 0 0 0 0 0 0 0 0 0 0 0 0 0 0 0 0 0 0 0 0 0 0 0 0 0 0
0 38 53 69 0 0 0 0 0 0 0 0 0 0 0 0 0 0 0 0 0 0 0 0 0 0 0 0 0 0 0 89
124 161 101 141 184 25 35 46 0 0 0 0 0 0 0 0 0 0 0 0 0 0 0 0 0 0 0 0 0
114 159 207 114 159 207 114 159 207 63 88 115 0 0 0 0 0 0 0 0 0 0 0 0
0 0 0 38 53 69 114 159 207 114 159 207 114 159 207 114 159 207 101 141
184 25 35 46 0 0 0 0 0 0 0 0 0 76 106 138 114 159 207 114 159 207 114
159 207 114 159 207 114 159 207 101 141 184 25 35 46 0 0 0 0 0 0 114
159 207 114 159 207 114 159 207 114 159 207 76 106 138 25 35 46 0 0 0
0 0 0 0 0 0 25 35 46 114 159 207 89 124 161 51 71 92 0 0 0 0 0 0 0 0 0
0 0 0 0 0 0 0 0 0 25 35 46 13 18 23 0 0 0 0 0 0 0 0 0 0 0 0 0 0 0 0 0
0 0 0 0 0 0 0 0 0 0 0 0 0 0 0 0 0 0 0 0 0 0 0 0 0 0 0 0 0 0 0 0 0 0 0
0 0
